# xmcd
#
# Track frame offsets:
#	150
#	12783
#	22756
#	34166
#	45669
#	57372
#	71287
#	82771
#	98255
#	109841
#
# Disc length: 1601 seconds
#
# Revision: 1
# Processed by: cddbd v1.5.2PL0 Copyright (c) Steve Scherf et al.
# Submitted via: audiograbber 1.83.01
#
DISCID=64063f0a
DTITLE=Various Artist - All Star Country Western Cavalcade CD5
DYEAR=1969
DGENRE=Country
TTITLE0=Charlie Louvin - Something's Wrong
TTITLE1=Tex Ritter - Bump Tiddil Dee Bum Bum
TTITLE2=Ferlin Husky - Drunken Driver
TTITLE3=Jean Shepard - Many Happy Hangovers to You
TTITLE4=Bobby Austin - Toy Heart
TTITLE5=Merle Haggard - My Ramona
TTITLE6=Jean Shepard - Enough Heart to Heart
TTITLE7=Tex Ritter - The Wind and the Tree
TTITLE8=Buck Owens - Cryin' Time
TTITLE9=Sonny James - I'll Keep Holding On
EXTD=
EXTT0=
EXTT1=
EXTT2=
EXTT3=
EXTT4=
EXTT5=
EXTT6=
EXTT7=
EXTT8=
EXTT9=
PLAYORDER=
